<?xml version="1.0" encoding="UTF-8"?>
<!DOCTYPE svg PUBLIC "-//W3C//DTD SVG 1.1//EN" "http://www.w3.org/Graphics/SVG/1.1/DTD/svg11.dtd">
<svg xmlns="http://www.w3.org/2000/svg" version="1.1" width="340px" height="340px" style="shape-rendering:geometricPrecision; text-rendering:geometricPrecision; image-rendering:optimizeQuality; fill-rule:evenodd; clip-rule:evenodd" xmlns:xlink="http://www.w3.org/1999/xlink">
<g><path style="opacity:0.004" fill="#2a274e" d="M 51.5,19.5 C 129.999,18.3344 208.666,18.1677 287.5,19C 208.834,19.5 130.167,19.6667 51.5,19.5 Z"/></g>
<g><path style="opacity:0.91" fill="#7f8eae" d="M 144.5,20.5 C 135.662,21.3533 126.662,22.02 117.5,22.5C 94.4976,22.3334 71.4976,22.5 48.5,23C 45.8506,23.4523 43.3506,24.2857 41,25.5C 40.6174,24.944 40.1174,24.6107 39.5,24.5C 39.5,24.1667 39.5,23.8333 39.5,23.5C 39.5,23.1667 39.5,22.8333 39.5,22.5C 41.7785,20.7367 44.4452,19.7367 47.5,19.5C 79.8154,20.4785 112.149,20.8119 144.5,20.5 Z"/></g>
<g><path style="opacity:0.999" fill="#6b7a92" d="M 39.5,22.5 C 39.5,22.8333 39.5,23.1667 39.5,23.5C 38.1667,23.8333 38.1667,24.1667 39.5,24.5C 40.1174,24.6107 40.6174,24.944 41,25.5C 43.3506,24.2857 45.8506,23.4523 48.5,23C 71.4976,22.5 94.4976,22.3334 117.5,22.5C 111.347,23.3279 105.013,23.8279 98.5,24C 100.715,24.1705 102.715,24.8372 104.5,26C 103.833,26.3333 103.167,26.6667 102.5,27C 104.833,27.3333 107.167,27.6667 109.5,28C 101.989,28.1712 94.6552,28.6712 87.5,29.5C 74.1625,29.3334 60.8292,29.5001 47.5,30C 39,33.1667 33.1667,39 30,47.5C 29.5,69.1641 29.3334,90.8308 29.5,112.5C 28.8998,115.625 27.7331,115.958 26,113.5C 25.586,113.957 25.086,114.291 24.5,114.5C 22.9032,150.144 22.0699,185.81 22,221.5C 21.8091,219.292 21.3091,217.292 20.5,215.5C 20.1954,158.819 20.5287,102.152 21.5,45.5C 22.89,40.8946 25.2233,36.7279 28.5,33C 27.5494,32.2825 27.3828,31.4491 28,30.5C 31.4552,27.1974 35.2886,24.5307 39.5,22.5 Z"/></g>
<g><path style="opacity:0.998" fill="#525b73" d="M 144.5,20.5 C 175.833,20.5 207.167,20.5 238.5,20.5C 199.672,22.0097 160.672,23.1764 121.5,24C 123.833,24.3333 126.167,24.6667 128.5,25C 127.167,25.6667 127.167,26.3333 128.5,27C 129.833,27.3333 131.167,27.6667 132.5,28C 127.649,28.1745 122.982,28.6745 118.5,29.5C 108.5,29.5 98.5,29.5 88.5,29.5C 88.1667,29.5 87.8333,29.5 87.5,29.5C 94.6552,28.6712 101.989,28.1712 109.5,28C 107.167,27.6667 104.833,27.3333 102.5,27C 103.167,26.6667 103.833,26.3333 104.5,26C 102.715,24.8372 100.715,24.1705 98.5,24C 105.013,23.8279 111.347,23.3279 117.5,22.5C 126.662,22.02 135.662,21.3533 144.5,20.5 Z"/></g>
<g><path style="opacity:0.998" fill="#40475a" d="M 238.5,20.5 C 254.5,20.5 270.5,20.5 286.5,20.5C 286.082,21.2216 285.416,21.7216 284.5,22C 256.152,22.1793 227.819,22.846 199.5,24C 200.833,24.3333 202.167,24.6667 203.5,25C 202.167,25.6667 202.167,26.3333 203.5,27C 205.167,27.3333 206.833,27.6667 208.5,28C 199.99,28.1706 191.657,28.6706 183.5,29.5C 176.167,29.5 168.833,29.5 161.5,29.5C 147.167,29.5 132.833,29.5 118.5,29.5C 122.982,28.6745 127.649,28.1745 132.5,28C 131.167,27.6667 129.833,27.3333 128.5,27C 127.167,26.3333 127.167,25.6667 128.5,25C 126.167,24.6667 123.833,24.3333 121.5,24C 160.672,23.1764 199.672,22.0097 238.5,20.5 Z"/></g>
<g><path style="opacity:0.004" fill="#252525" d="M 307.5,29.5 C 307.897,28.475 308.563,28.3083 309.5,29C 310.774,29.9772 310.774,30.8106 309.5,31.5C 309.5,30.8333 309.167,30.5 308.5,30.5C 308.5,29.8333 308.167,29.5 307.5,29.5 Z"/></g>
<g><path style="opacity:1" fill="#2b303c" d="M 286.5,20.5 C 290.139,21.4043 293.805,21.5709 297.5,21C 299.996,22.0804 302.33,23.4138 304.5,25C 304.209,26.9579 305.209,28.4579 307.5,29.5C 308.167,29.5 308.5,29.8333 308.5,30.5C 309.167,30.5 309.5,30.8333 309.5,31.5C 312.765,35.694 315.265,40.3606 317,45.5C 317.5,84.8319 317.667,124.165 317.5,163.5C 316.698,162.048 316.198,160.382 316,158.5C 315.667,121.5 315.333,84.5 315,47.5C 314.432,57.569 314.098,67.2357 314,76.5C 313.444,74.4049 312.944,74.2382 312.5,76C 312.811,78.3225 313.144,80.6558 313.5,83C 312.681,91.7553 312.181,100.589 312,109.5C 311.853,88.1343 311.353,68.8009 310.5,51.5C 309.833,109.167 309.167,166.833 308.5,224.5C 308.5,166.167 308.5,107.833 308.5,49.5C 306.383,38.8828 300.049,32.3828 289.5,30C 254.168,29.5 218.835,29.3333 183.5,29.5C 191.657,28.6706 199.99,28.1706 208.5,28C 206.833,27.6667 205.167,27.3333 203.5,27C 202.167,26.3333 202.167,25.6667 203.5,25C 202.167,24.6667 200.833,24.3333 199.5,24C 227.819,22.846 256.152,22.1793 284.5,22C 285.416,21.7216 286.082,21.2216 286.5,20.5 Z"/></g>
<g><path style="opacity:1" fill="#333743" d="M 87.5,29.5 C 87.8333,29.5 88.1667,29.5 88.5,29.5C 98.5,30.1667 108.5,30.8333 118.5,31.5C 125.167,31.5 131.833,31.5 138.5,31.5C 138.023,33.3384 137.69,35.1717 137.5,37C 139.888,43.4141 141.221,50.0808 141.5,57C 141.593,78.5393 135.426,97.7059 123,114.5C 120.446,117.054 117.946,119.554 115.5,122C 123.834,122.521 124.167,123.187 116.5,124C 118.708,124.191 120.708,124.691 122.5,125.5C 114.369,124.063 108.702,127.063 105.5,134.5C 104.683,136.969 104.183,139.635 104,142.5C 103.667,142.167 103.333,141.833 103,141.5C 99.6089,144.685 95.9423,146.685 92,147.5C 83.0667,152.144 73.5667,154.977 63.5,156C 67.8333,156.333 72.1667,156.667 76.5,157C 70.1667,157.333 63.8333,157.667 57.5,158C 64.346,158.172 71.0126,158.672 77.5,159.5C 70.8333,159.5 64.1667,159.5 57.5,159.5C 57.5,168.5 57.5,177.5 57.5,186.5C 56.6703,177.676 56.1703,168.676 56,159.5C 55.6667,161.833 55.3333,164.167 55,166.5C 54.964,164.059 54.1307,162.059 52.5,160.5C 49.0497,161.095 45.5497,161.428 42,161.5C 38.4662,160.306 34.9662,159.306 31.5,158.5C 31.6621,156.473 31.4955,154.473 31,152.5C 30.8227,156.356 30.3227,160.023 29.5,163.5C 29.5,146.5 29.5,129.5 29.5,112.5C 29.3334,90.8308 29.5,69.1641 30,47.5C 33.1667,39 39,33.1667 47.5,30C 60.8292,29.5001 74.1625,29.3334 87.5,29.5 Z"/></g>
<g><path style="opacity:1" fill="#3b404e" d="M 98.5,31.5 C 105.167,31.5 111.833,31.5 118.5,31.5C 117.391,32.29 116.058,32.79 114.5,33C 116.156,35.1973 117.322,37.6973 118,40.5C 124.356,63.7605 119.856,85.2605 104.5,105C 103.552,105.483 102.552,105.649 101.5,105.5C 101.649,106.552 101.483,107.552 101,108.5C 84.221,124.047 64.721,130.713 42.5,128.5C 38.6885,127.72 35.1885,126.387 32,124.5C 31.5004,117.842 31.3337,111.175 31.5,104.5C 32.8541,106.696 34.8541,108.196 37.5,109C 57.0067,114.025 74.34,109.191 89.5,94.5C 104.599,75.3864 106.599,55.0531 95.5,33.5C 96.6016,32.8243 97.6016,32.1577 98.5,31.5 Z"/></g>
<g><path style="opacity:1" fill="#414655" d="M 70.5,31.5 C 79.8333,31.5 89.1667,31.5 98.5,31.5C 97.6016,32.1577 96.6016,32.8243 95.5,33.5C 106.599,55.0531 104.599,75.3864 89.5,94.5C 74.34,109.191 57.0067,114.025 37.5,109C 34.8541,108.196 32.8541,106.696 31.5,104.5C 31.5,95.8333 31.5,87.1667 31.5,78.5C 32.2344,79.8775 32.9011,81.3775 33.5,83C 49.0679,92.2049 63.2345,90.3715 76,77.5C 85.5553,60.7024 82.3887,46.3691 66.5,34.5C 64.8849,33.846 63.2182,33.346 61.5,33C 64.6946,32.8195 67.6946,32.3195 70.5,31.5 Z"/></g>
<g><path style="opacity:1" fill="#1e2129" d="M 200.5,31.5 C 219.167,31.5 237.833,31.5 256.5,31.5C 255.081,32.4511 253.415,32.7845 251.5,32.5C 251.538,35.9511 252.205,39.2844 253.5,42.5C 251.945,44.8185 252.612,46.3185 255.5,47C 254.833,47.3333 254.167,47.6667 253.5,48C 253.847,56.1282 254.181,63.7949 254.5,71C 253.833,71.3333 253.167,71.6667 252.5,72C 253.819,79.0149 253.819,86.0149 252.5,93C 251.686,95.6269 250.353,97.9602 248.5,100C 249.022,100.561 249.355,101.228 249.5,102C 249.036,107.13 247.703,111.963 245.5,116.5C 245.709,117.086 246.043,117.586 246.5,118C 245.751,119.734 245.251,121.567 245,123.5C 244.667,123.167 244.333,122.833 244,122.5C 242.632,123.993 242.465,125.493 243.5,127C 242.833,127.667 242.167,128.333 241.5,129C 242.573,130.25 242.573,131.584 241.5,133C 239.541,134.3 238.374,136.133 238,138.5C 237.667,141.5 237.333,144.5 237,147.5C 236.819,144.305 236.319,141.305 235.5,138.5C 231.771,131.898 226.937,130.898 221,135.5C 220.502,132.183 220.335,128.85 220.5,125.5C 218.5,125.5 216.5,125.5 214.5,125.5C 214.5,134.833 214.5,144.167 214.5,153.5C 216.5,153.5 218.5,153.5 220.5,153.5C 220.351,152.448 220.517,151.448 221,150.5C 224.563,154.047 228.396,154.38 232.5,151.5C 232.611,152.117 232.944,152.617 233.5,153C 231.951,154.214 230.785,155.714 230,157.5C 229.667,157.167 229.333,156.833 229,156.5C 228.654,158.848 227.487,160.681 225.5,162C 228.167,162.667 228.167,163.333 225.5,164C 228.167,164.667 228.167,165.333 225.5,166C 225.728,166.399 226.062,166.565 226.5,166.5C 221.101,169.647 219.268,174.314 221,180.5C 221.804,183.146 223.304,185.146 225.5,186.5C 223.224,189.885 220.557,193.552 217.5,197.5C 216.092,198.243 214.759,199.077 213.5,200C 214.345,201.558 213.679,202.558 211.5,203C 211.833,203.333 212.167,203.667 212.5,204C 211.24,205.113 210.073,205.28 209,204.5C 204.84,209.618 200.84,214.951 197,220.5C 196.259,219.359 195.425,219.359 194.5,220.5C 192.763,221.897 191.429,223.564 190.5,225.5C 190.64,227.124 189.973,228.29 188.5,229C 190.25,230.754 190.917,232.921 190.5,235.5C 189.837,233.958 189.17,232.291 188.5,230.5C 187.831,232.631 187.165,234.631 186.5,236.5C 186.5,233.833 186.5,231.167 186.5,228.5C 184.473,228.338 182.473,228.505 180.5,229C 179.62,230.356 179.286,231.856 179.5,233.5C 178.833,234.167 178.167,234.833 177.5,235.5C 177.631,234.761 177.464,234.094 177,233.5C 174.786,236.308 173.286,235.975 172.5,232.5C 173.286,229.025 174.786,228.692 177,231.5C 177.667,230.833 177.667,230.167 177,229.5C 175.644,228.62 174.144,228.286 172.5,228.5C 172.053,225.476 171.22,225.143 170,227.5C 169.278,225.339 169.945,223.672 172,222.5C 172.333,222.833 172.667,223.167 173,223.5C 173.483,222.552 173.649,221.552 173.5,220.5C 174.93,220.579 176.264,220.246 177.5,219.5C 181.186,215.648 184.686,211.648 188,207.5C 188.333,207.833 188.667,208.167 189,208.5C 192.848,204.985 196.348,201.152 199.5,197C 202.334,195.664 204.334,193.497 205.5,190.5C 206.5,190 207.5,189.5 208.5,189C 199.19,188.172 199.19,187.672 208.5,187.5C 208.34,185.801 208.506,184.134 209,182.5C 209.122,184.437 209.955,185.77 211.5,186.5C 213.265,187.461 215.265,187.795 217.5,187.5C 217.5,180.5 217.5,173.5 217.5,166.5C 215.5,166.5 213.5,166.5 211.5,166.5C 210.674,170.982 210.174,175.649 210,180.5C 208.301,181.406 206.467,181.739 204.5,181.5C 204.5,178.167 204.5,174.833 204.5,171.5C 205.833,171.5 207.167,171.5 208.5,171.5C 208.5,169.833 208.5,168.167 208.5,166.5C 207.167,166.5 205.833,166.5 204.5,166.5C 204.5,164.5 204.5,162.5 204.5,160.5C 202.5,160.5 200.5,160.5 198.5,160.5C 198.5,162.5 198.5,164.5 198.5,166.5C 197.167,166.5 195.833,166.5 194.5,166.5C 194.5,168.167 194.5,169.833 194.5,171.5C 193.833,169.833 193.167,168.167 192.5,166.5C 190.5,166.5 188.5,166.5 186.5,166.5C 188.292,165.691 190.292,165.191 192.5,165C 191.552,164.517 190.552,164.351 189.5,164.5C 189.5,163.5 189.5,162.5 189.5,161.5C 190.552,161.649 191.552,161.483 192.5,161C 192.5,159.667 192.5,158.333 192.5,157C 198.675,155.767 204.675,154.267 210.5,152.5C 210.5,145.833 210.5,139.167 210.5,132.5C 208.5,132.5 206.5,132.5 204.5,132.5C 204.666,137.179 204.499,141.845 204,146.5C 201.667,149.167 199.333,149.167 197,146.5C 196.501,141.845 196.334,137.179 196.5,132.5C 194.833,132.5 193.167,132.5 191.5,132.5C 190.674,137.316 190.174,142.316 190,147.5C 189.687,140.132 189.02,132.799 188,125.5C 187.83,134.676 187.33,143.676 186.5,152.5C 186.5,143.5 186.5,134.5 186.5,125.5C 184.708,124.691 182.708,124.191 180.5,124C 182.5,123.667 184.5,123.333 186.5,123C 184.956,122.71 183.623,122.044 182.5,121C 184.301,120.683 184.634,120.016 183.5,119C 184.227,117.601 184.727,116.101 185,114.5C 185.333,114.833 185.667,115.167 186,115.5C 186.423,112.867 187.59,110.701 189.5,109C 188.643,108.311 187.977,107.478 187.5,106.5C 188.529,106.704 189.529,106.204 190.5,105C 189.633,102.684 190.299,100.684 192.5,99C 191.428,95.9556 192.094,93.2889 194.5,91C 192.564,88.9714 192.73,86.8047 195,84.5C 195.743,82.5594 195.576,80.7261 194.5,79C 197.167,78.3333 197.167,77.6667 194.5,77C 195.711,75.8869 195.711,74.7202 194.5,73.5C 197.807,73.113 198.141,71.4463 195.5,68.5C 196.167,67.8333 196.833,67.1667 197.5,66.5C 196.289,65.2798 196.289,64.1131 197.5,63C 195.416,61.5732 195.416,59.9065 197.5,58C 197.227,55.8491 196.561,53.8491 195.5,52C 195.461,48.7889 195.795,45.4556 196.5,42C 195.5,39.6667 194.5,37.3333 193.5,35C 196.167,34.3333 196.167,33.6667 193.5,33C 196.036,32.8138 198.369,32.3138 200.5,31.5 Z"/></g>
<g><path style="opacity:1" fill="#494e5e" d="M 70.5,31.5 C 67.6946,32.3195 64.6946,32.8195 61.5,33C 63.2182,33.346 64.8849,33.846 66.5,34.5C 82.3887,46.3691 85.5553,60.7024 76,77.5C 63.2345,90.3715 49.0679,92.2049 33.5,83C 32.9011,81.3775 32.2344,79.8775 31.5,78.5C 31.3335,68.1613 31.5002,57.828 32,47.5C 35.1667,40.3333 40.3333,35.1667 47.5,32C 55.1594,31.5003 62.8261,31.3336 70.5,31.5 Z"/></g>
<g><path style="opacity:0.016" fill="#799fdf" d="M 21.5,45.5 C 21.1667,45.5 20.8333,45.5 20.5,45.5C 20.8333,41.5 21.1667,41.5 21.5,45.5 Z"/></g>
<g><path style="opacity:0.012" fill="#a3adad" d="M 20.5,45.5 C 20.6602,47.1992 20.4935,48.8659 20,50.5C 19.2204,48.6131 19.3871,46.9464 20.5,45.5 Z"/></g>
<g><path style="opacity:0.008" fill="#030304" d="M 318.5,229.5 C 318.333,168.166 318.5,106.832 319,45.5C 319.832,107.001 319.665,168.335 318.5,229.5 Z"/></g>
<g><path style="opacity:1" fill="#4b5768" d="M 178.5,87.5 C 181.526,85.5857 184.693,82.919 188,79.5C 191.703,73.135 192.37,66.4684 190,59.5C 189.439,58.9781 188.772,58.6448 188,58.5C 183.753,62.984 181.753,61.984 182,55.5C 174.519,58.0979 167.019,58.0979 159.5,55.5C 158.652,60.4912 158.152,65.4912 158,70.5C 159.172,74.8373 162.006,76.8373 166.5,76.5C 166.923,79.2431 165.756,80.5765 163,80.5C 160.995,80.0009 159.495,78.8342 158.5,77C 157.5,76.3333 156.5,76.3333 155.5,77C 157.303,78.262 158.636,79.9287 159.5,82C 161.81,82.4966 164.143,82.6633 166.5,82.5C 166.5,84.1667 166.5,85.8333 166.5,87.5C 158.502,86.0184 153.002,81.3518 150,73.5C 148.244,64.0487 150.744,56.0487 157.5,49.5C 171.093,43.5504 182.26,46.5504 191,58.5C 195.049,68.8041 192.883,77.6374 184.5,85C 182.593,86.122 180.593,86.9553 178.5,87.5 Z"/></g>
<g><path style="opacity:1" fill="#2d313c" d="M 138.5,31.5 C 145.175,31.3337 151.842,31.5004 158.5,32C 157.167,32.3333 155.833,32.6667 154.5,33C 155.686,38.4344 156.686,43.9344 157.5,49.5C 150.744,56.0487 148.244,64.0487 150,73.5C 153.002,81.3518 158.502,86.0184 166.5,87.5C 166.5,85.8333 166.5,84.1667 166.5,82.5C 164.143,82.6633 161.81,82.4966 159.5,82C 158.636,79.9287 157.303,78.262 155.5,77C 156.5,76.3333 157.5,76.3333 158.5,77C 159.495,78.8342 160.995,80.0009 163,80.5C 165.756,80.5765 166.923,79.2431 166.5,76.5C 162.006,76.8373 159.172,74.8373 158,70.5C 158.152,65.4912 158.652,60.4912 159.5,55.5C 167.019,58.0979 174.519,58.0979 182,55.5C 181.753,61.984 183.753,62.984 188,58.5C 188.772,58.6448 189.439,58.9781 190,59.5C 192.37,66.4684 191.703,73.135 188,79.5C 184.693,82.919 181.526,85.5857 178.5,87.5C 178.44,88.0431 178.107,88.3764 177.5,88.5C 176.833,85.1667 176.167,81.8333 175.5,78.5C 173.668,85.8274 171.835,93.1608 170,100.5C 168.242,101.469 167.742,102.636 168.5,104C 166.314,107.205 164.814,110.705 164,114.5C 162.066,118.759 159.732,122.759 157,126.5C 156.322,128.598 156.489,130.598 157.5,132.5C 156.167,132.5 154.833,132.5 153.5,132.5C 153.5,130.833 153.5,129.167 153.5,127.5C 151.5,127.5 149.5,127.5 147.5,127.5C 147.5,129.167 147.5,130.833 147.5,132.5C 146.5,132.5 145.5,132.5 144.5,132.5C 144.5,134.167 144.5,135.833 144.5,137.5C 144.918,138.222 145.584,138.722 146.5,139C 144.834,141.48 144.001,144.313 144,147.5C 143.667,142.5 143.333,137.5 143,132.5C 142.828,139.346 142.328,146.013 141.5,152.5C 140.048,153.302 138.382,153.802 136.5,154C 138.167,154.333 139.833,154.667 141.5,155C 137.114,157.522 133.114,160.522 129.5,164C 130.167,164.333 130.833,164.667 131.5,165C 129.618,165.198 127.952,165.698 126.5,166.5C 126.5,173.167 126.5,179.833 126.5,186.5C 125.672,180.013 125.172,173.346 125,166.5C 124.333,193.167 123.667,193.167 123,166.5C 122.828,173.346 122.328,180.013 121.5,186.5C 121.5,179.833 121.5,173.167 121.5,166.5C 119.5,166.5 117.5,166.5 115.5,166.5C 115.666,171.511 115.499,176.511 115,181.5C 112.408,182.982 110.075,182.648 108,180.5C 107.501,175.845 107.334,171.179 107.5,166.5C 105.833,166.5 104.167,166.5 102.5,166.5C 102.5,171.5 102.5,176.5 102.5,181.5C 101.674,176.684 101.174,171.684 101,166.5C 100.814,169.036 100.314,171.369 99.5,173.5C 96.3007,167.574 91.3007,165.407 84.5,167C 79.8868,170.647 78.2202,175.48 79.5,181.5C 78.7784,181.918 78.2784,182.584 78,183.5C 77.6667,182.833 77.3333,182.167 77,181.5C 73.2314,182.623 69.0648,183.29 64.5,183.5C 64.5,181.5 64.5,179.5 64.5,177.5C 68.3714,177.815 72.0381,177.482 75.5,176.5C 75.5,174.833 75.5,173.167 75.5,171.5C 71.5,171.5 67.5,171.5 63.5,171.5C 63.5,169.167 63.5,166.833 63.5,164.5C 68.1667,164.5 72.8333,164.5 77.5,164.5C 77.5,162.833 77.5,161.167 77.5,159.5C 71.0126,158.672 64.346,158.172 57.5,158C 63.8333,157.667 70.1667,157.333 76.5,157C 72.1667,156.667 67.8333,156.333 63.5,156C 73.5667,154.977 83.0667,152.144 92,147.5C 95.9423,146.685 99.6089,144.685 103,141.5C 103.333,141.833 103.667,142.167 104,142.5C 104.183,139.635 104.683,136.969 105.5,134.5C 105.189,150.493 112.522,155.993 127.5,151C 131.41,147.776 133.077,143.609 132.5,138.5C 128.167,138.5 123.833,138.5 119.5,138.5C 119.5,139.833 119.5,141.167 119.5,142.5C 121.924,142.192 124.257,142.526 126.5,143.5C 123.614,148.761 119.614,149.761 114.5,146.5C 110.26,141.019 110.594,135.852 115.5,131C 119.9,129.664 123.566,130.664 126.5,134C 128.134,134.494 129.801,134.66 131.5,134.5C 130.886,129.219 127.886,126.219 122.5,125.5C 120.708,124.691 118.708,124.191 116.5,124C 124.167,123.187 123.834,122.521 115.5,122C 117.946,119.554 120.446,117.054 123,114.5C 135.426,97.7059 141.593,78.5393 141.5,57C 141.221,50.0808 139.888,43.4141 137.5,37C 137.69,35.1717 138.023,33.3384 138.5,31.5 Z"/></g>
<g><path style="opacity:1" fill="#f3f3f4" d="M 122.5,125.5 C 127.886,126.219 130.886,129.219 131.5,134.5C 129.801,134.66 128.134,134.494 126.5,134C 123.566,130.664 119.9,129.664 115.5,131C 110.594,135.852 110.26,141.019 114.5,146.5C 119.614,149.761 123.614,148.761 126.5,143.5C 124.257,142.526 121.924,142.192 119.5,142.5C 119.5,141.167 119.5,139.833 119.5,138.5C 123.833,138.5 128.167,138.5 132.5,138.5C 133.077,143.609 131.41,147.776 127.5,151C 112.522,155.993 105.189,150.493 105.5,134.5C 108.702,127.063 114.369,124.063 122.5,125.5 Z"/></g>
<g><path style="opacity:1" fill="#e2e3e4" d="M 136.5,125.5 C 138.5,125.5 140.5,125.5 142.5,125.5C 142.5,127.167 142.5,128.833 142.5,130.5C 140.5,130.5 138.5,130.5 136.5,130.5C 136.5,128.833 136.5,127.167 136.5,125.5 Z"/></g>
<g><path style="opacity:1" fill="#f3f4f4" d="M 157.5,132.5 C 157.5,134.167 157.5,135.833 157.5,137.5C 156.167,137.5 154.833,137.5 153.5,137.5C 153.5,141.167 153.5,144.833 153.5,148.5C 154.833,148.5 156.167,148.5 157.5,148.5C 157.5,149.833 157.5,151.167 157.5,152.5C 154.552,152.777 151.719,152.444 149,151.5C 148.501,146.845 148.334,142.179 148.5,137.5C 147.167,137.5 145.833,137.5 144.5,137.5C 144.5,135.833 144.5,134.167 144.5,132.5C 145.5,132.5 146.5,132.5 147.5,132.5C 147.5,130.833 147.5,129.167 147.5,127.5C 149.5,127.5 151.5,127.5 153.5,127.5C 153.5,129.167 153.5,130.833 153.5,132.5C 154.833,132.5 156.167,132.5 157.5,132.5 Z"/></g>
<g><path style="opacity:1" fill="#f9fafa" d="M 141.5,152.5 C 139.833,152.5 138.167,152.5 136.5,152.5C 136.5,145.833 136.5,139.167 136.5,132.5C 138.167,132.5 139.833,132.5 141.5,132.5C 141.5,139.167 141.5,145.833 141.5,152.5 Z"/></g>
<g><path style="opacity:1" fill="#d1d2d4" d="M 235.5,138.5 C 235.881,143.186 234.881,147.519 232.5,151.5C 228.396,154.38 224.563,154.047 221,150.5C 220.517,151.448 220.351,152.448 220.5,153.5C 218.5,153.5 216.5,153.5 214.5,153.5C 214.5,144.167 214.5,134.833 214.5,125.5C 216.5,125.5 218.5,125.5 220.5,125.5C 220.335,128.85 220.502,132.183 221,135.5C 226.937,130.898 231.771,131.898 235.5,138.5 Z"/></g>
<g><path style="opacity:1" fill="#14161c" d="M 308.5,49.5 C 308.5,107.833 308.5,166.167 308.5,224.5C 307.905,232.854 303.905,239.02 296.5,243C 257.343,263.078 218.343,283.412 179.5,304C 173.489,305.683 167.489,305.85 161.5,304.5C 161.918,303.778 162.584,303.278 163.5,303C 163.043,302.586 162.709,302.086 162.5,301.5C 166.917,300.454 171.25,298.62 175.5,296C 176.833,295.333 176.833,294.667 175.5,294C 179.592,293.653 183.259,291.82 186.5,288.5C 188.102,289.55 188.935,288.883 189,286.5C 189.414,286.957 189.914,287.291 190.5,287.5C 191.354,286.478 192.354,285.645 193.5,285C 193.167,284.667 192.833,284.333 192.5,284C 195.191,284.054 197.024,282.887 198,280.5C 198.718,281.451 199.551,281.617 200.5,281C 201.479,278.597 202.979,277.764 205,278.5C 208.491,275.333 211.991,272.167 215.5,269C 218.403,268.431 220.403,266.765 221.5,264C 222.833,263.667 224.167,263.333 225.5,263C 224.366,261.984 224.699,261.317 226.5,261C 225.346,260.086 225.513,259.253 227,258.5C 227.333,258.833 227.667,259.167 228,259.5C 228.71,258.027 229.876,257.36 231.5,257.5C 232.243,254.43 234.243,252.764 237.5,252.5C 237.351,251.448 237.517,250.448 238,249.5C 246.272,241.028 254.605,232.028 263,222.5C 267.445,214.736 272.611,207.569 278.5,201C 278.043,200.586 277.709,200.086 277.5,199.5C 278.853,198.476 279.52,197.143 279.5,195.5C 280.5,195.5 281.5,195.5 282.5,195.5C 281.846,192.16 283.179,189.327 286.5,187C 286.167,186.667 285.833,186.333 285.5,186C 288.116,184.291 289.116,182.124 288.5,179.5C 292.659,172.486 296.659,165.32 300.5,158C 297.724,156.221 298.057,155.221 301.5,155C 300.833,154.667 300.167,154.333 299.5,154C 300.69,151.884 302.023,149.884 303.5,148C 302.833,147.667 302.167,147.333 301.5,147C 304.352,144.479 305.852,141.313 306,137.5C 306.333,143.5 306.667,149.5 307,155.5C 307.167,119.998 307.667,84.6643 308.5,49.5 Z"/></g>
<g><path style="opacity:1" fill="#1f222b" d="M 222.5,137.5 C 228.499,137.002 230.666,139.669 229,145.5C 226.822,149.065 224.156,149.399 221,146.5C 220.068,143.177 220.568,140.177 222.5,137.5 Z"/></g>
<g><path style="opacity:1" fill="#e0e0e1" d="M 191.5,132.5 C 193.167,132.5 194.833,132.5 196.5,132.5C 196.334,137.179 196.501,141.845 197,146.5C 199.333,149.167 201.667,149.167 204,146.5C 204.499,141.845 204.666,137.179 204.5,132.5C 206.5,132.5 208.5,132.5 210.5,132.5C 210.5,139.167 210.5,145.833 210.5,152.5C 207.921,152.917 205.754,152.25 204,150.5C 200.603,153.981 196.936,154.314 193,151.5C 191.584,145.285 191.084,138.952 191.5,132.5 Z"/></g>
<g><path style="opacity:1" fill="#c4c5c7" d="M 204.5,181.5 C 205.209,182.404 206.209,182.737 207.5,182.5C 207.5,183.833 207.5,185.167 207.5,186.5C 204.315,186.98 201.481,186.314 199,184.5C 198.501,180.179 198.334,175.846 198.5,171.5C 197.167,171.5 195.833,171.5 194.5,171.5C 194.5,169.833 194.5,168.167 194.5,166.5C 195.833,166.5 197.167,166.5 198.5,166.5C 198.5,164.5 198.5,162.5 198.5,160.5C 200.5,160.5 202.5,160.5 204.5,160.5C 204.5,162.5 204.5,164.5 204.5,166.5C 205.833,166.5 207.167,166.5 208.5,166.5C 208.5,168.167 208.5,169.833 208.5,171.5C 207.167,171.5 205.833,171.5 204.5,171.5C 204.5,174.833 204.5,178.167 204.5,181.5 Z"/></g>
<g><path style="opacity:1" fill="#c2c2c5" d="M 211.5,159.5 C 213.5,159.5 215.5,159.5 217.5,159.5C 217.5,161.167 217.5,162.833 217.5,164.5C 215.5,164.5 213.5,164.5 211.5,164.5C 211.5,162.833 211.5,161.167 211.5,159.5 Z"/></g>
<g><path style="opacity:1" fill="#a5a6a8" d="M 263.5,170.5 C 263.5,176.167 263.5,181.833 263.5,187.5C 261.5,187.5 259.5,187.5 257.5,187.5C 257.666,182.489 257.499,177.489 257,172.5C 254.408,171.018 252.075,171.352 250,173.5C 249.501,177.821 249.334,182.154 249.5,186.5C 247.833,186.5 246.167,186.5 244.5,186.5C 244.5,179.833 244.5,173.167 244.5,166.5C 246.167,166.5 247.833,166.5 249.5,166.5C 249.443,170.133 250.443,170.3 252.5,167C 257.04,165.662 260.707,166.829 263.5,170.5 Z"/></g>
<g><path style="opacity:0.999" fill="#464c62" d="M 29.5,112.5 C 29.5,129.5 29.5,146.5 29.5,163.5C 29.5,171.167 29.5,178.833 29.5,186.5C 27.9138,187.675 26.4138,189.009 25,190.5C 24.6667,188.5 24.3333,186.5 24,184.5C 23.0605,200.887 23.3938,217.22 25,233.5C 27.3535,238.858 30.8535,243.358 35.5,247C 42.6267,249.88 48.96,253.713 54.5,258.5C 53.1667,258.833 53.1667,259.167 54.5,259.5C 54.8333,259.5 55.1667,259.5 55.5,259.5C 55.5,259.833 55.5,260.167 55.5,260.5C 55.5,260.833 55.5,261.167 55.5,261.5C 50.7013,259.267 46.0346,256.767 41.5,254C 42.8333,253.333 42.8333,252.667 41.5,252C 38.1748,252.53 35.1748,251.53 32.5,249C 31.7114,246.291 30.0447,243.791 27.5,241.5C 26.4884,240.128 25.4884,238.795 24.5,237.5C 24.6716,236.508 24.3382,235.842 23.5,235.5C 23.6716,234.508 23.3382,233.842 22.5,233.5C 21.5526,227.534 20.8859,221.534 20.5,215.5C 21.3091,217.292 21.8091,219.292 22,221.5C 22.0699,185.81 22.9032,150.144 24.5,114.5C 25.086,114.291 25.586,113.957 26,113.5C 27.7331,115.958 28.8998,115.625 29.5,112.5 Z"/></g>
<g><path style="opacity:1" fill="#1e2129" d="M 31.5,158.5 C 31.3334,181.836 31.5,205.169 32,228.5C 32.3333,228.833 32.6667,229.167 33,229.5C 33.4828,228.552 33.6495,227.552 33.5,226.5C 35.143,226.48 36.4763,227.147 37.5,228.5C 43.2283,228.76 48.7283,228.426 54,227.5C 54.3333,228.167 54.6667,228.833 55,229.5C 57.1351,226.544 59.4684,226.211 62,228.5C 62.6891,227.643 63.5224,226.977 64.5,226.5C 66.9925,226.6 69.4925,226.933 72,227.5C 73,226.833 74,226.167 75,225.5C 78.5546,226.72 82.0546,226.72 85.5,225.5C 88.9652,224.209 92.4652,222.875 96,221.5C 96.772,221.645 97.4387,221.978 98,222.5C 99.608,220.9 101.441,219.567 103.5,218.5C 105.335,219.192 107.168,218.858 109,217.5C 110.299,217.966 111.799,217.966 113.5,217.5C 113.38,214.795 114.38,214.128 116.5,215.5C 119.917,213.078 123.417,210.744 127,208.5C 128.388,209.554 129.888,209.72 131.5,209C 131.167,208.667 130.833,208.333 130.5,208C 131.949,206.883 133.616,206.216 135.5,206C 136.126,205.25 136.626,204.416 137,203.5C 137.333,203.833 137.667,204.167 138,204.5C 141.689,203.481 144.522,201.314 146.5,198C 151.395,195.291 156.062,192.291 160.5,189C 161.337,187.989 161.67,186.822 161.5,185.5C 162.988,182.814 163.655,183.147 163.5,186.5C 166.024,187.8 168.691,187.8 171.5,186.5C 171.942,185.261 172.609,184.261 173.5,183.5C 177.247,188.345 181.414,188.679 186,184.5C 186.483,185.448 186.649,186.448 186.5,187.5C 188.5,187.5 190.5,187.5 192.5,187.5C 192.5,180.5 192.5,173.5 192.5,166.5C 193.167,168.167 193.833,169.833 194.5,171.5C 195.833,171.5 197.167,171.5 198.5,171.5C 198.334,175.846 198.501,180.179 199,184.5C 201.481,186.314 204.315,186.98 207.5,186.5C 207.5,185.167 207.5,183.833 207.5,182.5C 206.209,182.737 205.209,182.404 204.5,181.5C 206.467,181.739 208.301,181.406 210,180.5C 210.174,175.649 210.674,170.982 211.5,166.5C 211.5,166.833 211.5,167.167 211.5,167.5C 211.5,173.833 211.5,180.167 211.5,186.5C 209.955,185.77 209.122,184.437 209,182.5C 208.506,184.134 208.34,185.801 208.5,187.5C 199.19,187.672 199.19,188.172 208.5,189C 207.5,189.5 206.5,190 205.5,190.5C 204.334,193.497 202.334,195.664 199.5,197C 196.348,201.152 192.848,204.985 189,208.5C 188.667,208.167 188.333,207.833 188,207.5C 184.686,211.648 181.186,215.648 177.5,219.5C 176.264,220.246 174.93,220.579 173.5,220.5C 173.649,221.552 173.483,222.552 173,223.5C 172.667,223.167 172.333,222.833 172,222.5C 169.945,223.672 169.278,225.339 170,227.5C 171.22,225.143 172.053,225.476 172.5,228.5C 169.243,232.816 170.243,235.482 175.5,236.5C 175.082,237.222 174.416,237.722 173.5,238C 174.167,238.333 174.833,238.667 175.5,239C 173.402,239.014 171.569,238.847 170,238.5C 168.807,240.497 167.307,242.164 165.5,243.5C 164.659,245.379 164.325,247.379 164.5,249.5C 163.833,249.5 163.167,249.5 162.5,249.5C 163.058,243.445 160.891,242.112 156,245.5C 155.51,246.793 155.343,248.127 155.5,249.5C 154.566,248.432 154.232,247.099 154.5,245.5C 154.5,244.833 154.5,244.167 154.5,243.5C 153.848,242.275 152.681,241.608 151,241.5C 149.615,241.514 148.449,241.848 147.5,242.5C 144.838,240.732 141.838,240.065 138.5,240.5C 137.677,243.977 137.177,247.644 137,251.5C 136.814,249.1 136.314,246.766 135.5,244.5C 134.522,244.977 133.689,245.643 133,246.5C 131.951,245.483 130.784,245.316 129.5,246C 128.138,248.439 126.305,248.939 124,247.5C 122.323,248.901 120.656,250.235 119,251.5C 118.055,251.095 117.388,250.428 117,249.5C 116.667,250.5 116.333,251.5 116,252.5C 113.272,252.014 110.605,252.68 108,254.5C 105.502,253.879 103.168,254.545 101,256.5C 98.3333,255.167 96.3333,255.833 95,258.5C 92.679,255.967 90.679,256.301 89,259.5C 88.2588,258.359 87.4255,258.359 86.5,259.5C 85.0172,257.054 83.8505,257.388 83,260.5C 80.405,260.997 77.905,260.33 75.5,258.5C 74.8933,258.624 74.56,258.957 74.5,259.5C 64.0168,253.758 53.3502,248.258 42.5,243C 36.0343,239.206 31.8677,233.706 30,226.5C 29.5001,213.171 29.3334,199.837 29.5,186.5C 29.5,178.833 29.5,171.167 29.5,163.5C 30.3227,160.023 30.8227,156.356 31,152.5C 31.4955,154.473 31.6621,156.473 31.5,158.5 Z"/></g>
<g><path style="opacity:1" fill="#d0d0d2" d="M 186.5,166.5 C 188.5,166.5 190.5,166.5 192.5,166.5C 192.5,173.5 192.5,180.5 192.5,187.5C 190.5,187.5 188.5,187.5 186.5,187.5C 186.649,186.448 186.483,185.448 186,184.5C 181.414,188.679 177.247,188.345 173.5,183.5C 172.007,178.764 172.174,174.098 174,169.5C 177.524,165.926 181.358,165.593 185.5,168.5C 186.298,168.043 186.631,167.376 186.5,166.5 Z"/></g>
<g><path style="opacity:1" fill="#1a1d24" d="M 256.5,31.5 C 269.241,31.0589 281.908,31.5589 294.5,33C 294.932,40.1563 294.932,47.4897 294.5,55C 297.167,55.6667 297.167,56.3333 294.5,57C 295.051,58.3985 295.384,59.7318 295.5,61C 293.487,61.8753 293.487,63.2087 295.5,65C 294.833,65.3333 294.167,65.6667 293.5,66C 294.636,67.5298 295.636,68.8631 296.5,70C 294.875,70.8525 294.542,71.8525 295.5,73C 293.541,75.3158 293.541,77.3158 295.5,79C 294.167,81 292.833,83 291.5,85C 292.308,85.3076 292.975,85.8076 293.5,86.5C 292.856,90.5243 292.856,94.3576 293.5,98C 289.786,99.8267 288.786,102.66 290.5,106.5C 289.833,108.167 289.167,109.833 288.5,111.5C 290.991,112.541 290.991,113.374 288.5,114C 288.833,114.333 289.167,114.667 289.5,115C 287.645,119.899 285.978,124.899 284.5,130C 285.71,131.868 285.21,133.368 283,134.5C 281.981,136.269 281.814,137.936 282.5,139.5C 280.774,141.228 279.441,143.228 278.5,145.5C 279.29,149.1 277.956,151.933 274.5,154C 274.5,155.667 274.5,157.333 274.5,159C 272.311,159.677 271.978,160.844 273.5,162.5C 278.721,163.624 278.721,164.458 273.5,165C 275.058,165.21 276.391,165.71 277.5,166.5C 268.383,165.916 265.716,169.582 269.5,177.5C 268.061,178.509 266.728,178.176 265.5,176.5C 264.95,174.343 264.283,172.343 263.5,170.5C 260.707,166.829 257.04,165.662 252.5,167C 250.443,170.3 249.443,170.133 249.5,166.5C 247.833,166.5 246.167,166.5 244.5,166.5C 244.5,173.167 244.5,179.833 244.5,186.5C 246.167,186.5 247.833,186.5 249.5,186.5C 249.334,182.154 249.501,177.821 250,173.5C 252.075,171.352 254.408,171.018 257,172.5C 257.499,177.489 257.666,182.489 257.5,187.5C 259.292,188.309 261.292,188.809 263.5,189C 259.72,189.085 256.72,190.585 254.5,193.5C 251.316,198.397 248.316,202.897 245.5,207C 245.833,207.333 246.167,207.667 246.5,208C 242.556,211.401 238.722,214.901 235,218.5C 233.887,219.76 233.72,220.927 234.5,222C 232.5,223.333 230.5,224.667 228.5,226C 228.833,226.333 229.167,226.667 229.5,227C 227.68,227.979 226.513,229.479 226,231.5C 224.16,230.167 223.66,230.334 224.5,232C 220.833,233.667 218.167,236.333 216.5,240C 212.936,240.564 210.603,242.564 209.5,246C 205.998,246.174 204.165,248.007 204,251.5C 203.814,248.964 203.314,246.631 202.5,244.5C 198.813,244.187 195.146,244.187 191.5,244.5C 190.353,246.765 190.186,249.098 191,251.5C 191.333,249.833 191.667,248.167 192,246.5C 193.011,245.663 194.178,245.33 195.5,245.5C 195.338,247.527 195.505,249.527 196,251.5C 196.198,249.618 196.698,247.952 197.5,246.5C 197.917,249.079 197.25,251.246 195.5,253C 196.833,253.667 197.833,254.667 198.5,256C 197.551,256.617 196.718,256.451 196,255.5C 193.078,257.756 189.911,259.589 186.5,261C 185.167,261.667 185.167,262.333 186.5,263C 183.623,263.956 180.956,265.289 178.5,267C 178.833,267.333 179.167,267.667 179.5,268C 177.598,269.651 175.598,269.984 173.5,269C 173.619,270.281 173.119,271.448 172,272.5C 170.667,272.5 169.333,272.5 168,272.5C 165.379,274.154 162.879,275.987 160.5,278C 159.551,278.617 158.718,278.451 158,277.5C 155.913,279.483 153.413,280.817 150.5,281.5C 151.153,284.658 150.319,284.992 148,282.5C 145.911,284.503 143.411,285.67 140.5,286C 137.614,287.068 135.948,288.568 135.5,290.5C 115.037,280.435 94.7041,270.102 74.5,259.5C 74.56,258.957 74.8933,258.624 75.5,258.5C 77.905,260.33 80.405,260.997 83,260.5C 83.8505,257.388 85.0172,257.054 86.5,259.5C 87.4255,258.359 88.2588,258.359 89,259.5C 90.679,256.301 92.679,255.967 95,258.5C 96.3333,255.833 98.3333,255.167 101,256.5C 103.168,254.545 105.502,253.879 108,254.5C 110.605,252.68 113.272,252.014 116,252.5C 116.333,251.5 116.667,250.5 117,249.5C 117.388,250.428 118.055,251.095 119,251.5C 120.656,250.235 122.323,248.901 124,247.5C 126.305,248.939 128.138,248.439 129.5,246C 130.784,245.316 131.951,245.483 133,246.5C 133.689,245.643 134.522,244.977 135.5,244.5C 136.314,246.766 136.814,249.1 137,251.5C 137.177,247.644 137.677,243.977 138.5,240.5C 138.177,244.226 138.511,247.893 139.5,251.5C 140.386,250.675 140.719,249.675 140.5,248.5C 145.339,249.323 147.673,247.323 147.5,242.5C 148.449,241.848 149.615,241.514 151,241.5C 152.681,241.608 153.848,242.275 154.5,243.5C 152.856,243.286 151.356,243.62 150,244.5C 149.186,246.902 149.353,249.235 150.5,251.5C 151.466,249.604 151.799,247.604 151.5,245.5C 152.5,245.5 153.5,245.5 154.5,245.5C 154.232,247.099 154.566,248.432 155.5,249.5C 157.833,253.5 160.167,253.5 162.5,249.5C 163.167,249.5 163.833,249.5 164.5,249.5C 165.79,250.935 167.456,251.935 169.5,252.5C 168.224,253.645 166.891,253.645 165.5,252.5C 164.304,252.846 164.304,253.346 165.5,254C 167.167,254.667 168.833,254.667 170.5,254C 171.456,250.606 171.789,247.106 171.5,243.5C 169.5,243.5 167.5,243.5 165.5,243.5C 167.307,242.164 168.807,240.497 170,238.5C 171.569,238.847 173.402,239.014 175.5,239C 174.833,238.667 174.167,238.333 173.5,238C 174.416,237.722 175.082,237.222 175.5,236.5C 176.492,236.672 177.158,236.338 177.5,235.5C 178.167,234.833 178.833,234.167 179.5,233.5C 179.722,236.076 181.055,236.91 183.5,236C 181.808,234.599 181.141,232.766 181.5,230.5C 182.5,230.5 183.5,230.5 184.5,230.5C 184.054,233.01 184.72,235.01 186.5,236.5C 187.165,234.631 187.831,232.631 188.5,230.5C 189.17,232.291 189.837,233.958 190.5,235.5C 191.708,236.782 193.042,236.782 194.5,235.5C 192.995,234.158 192.328,232.492 192.5,230.5C 193.5,230.5 194.5,230.5 195.5,230.5C 195.201,232.604 195.534,234.604 196.5,236.5C 197.48,233.914 197.813,231.247 197.5,228.5C 195.5,228.5 193.5,228.5 191.5,228.5C 191.737,227.209 191.404,226.209 190.5,225.5C 191.429,223.564 192.763,221.897 194.5,220.5C 195.425,219.359 196.259,219.359 197,220.5C 200.84,214.951 204.84,209.618 209,204.5C 210.073,205.28 211.24,205.113 212.5,204C 212.167,203.667 211.833,203.333 211.5,203C 213.679,202.558 214.345,201.558 213.5,200C 214.759,199.077 216.092,198.243 217.5,197.5C 220.557,193.552 223.224,189.885 225.5,186.5C 236.981,188.854 241.814,184.187 240,172.5C 237.09,167.137 232.59,165.137 226.5,166.5C 226.062,166.565 225.728,166.399 225.5,166C 228.167,165.333 228.167,164.667 225.5,164C 228.167,163.333 228.167,162.667 225.5,162C 227.487,160.681 228.654,158.848 229,156.5C 229.333,156.833 229.667,157.167 230,157.5C 230.785,155.714 231.951,154.214 233.5,153C 232.944,152.617 232.611,152.117 232.5,151.5C 234.881,147.519 235.881,143.186 235.5,138.5C 236.319,141.305 236.819,144.305 237,147.5C 237.333,144.5 237.667,141.5 238,138.5C 238.374,136.133 239.541,134.3 241.5,133C 242.573,131.584 242.573,130.25 241.5,129C 242.167,128.333 242.833,127.667 243.5,127C 242.465,125.493 242.632,123.993 244,122.5C 244.333,122.833 244.667,123.167 245,123.5C 245.251,121.567 245.751,119.734 246.5,118C 246.043,117.586 245.709,117.086 245.5,116.5C 247.703,111.963 249.036,107.13 249.5,102C 249.355,101.228 249.022,100.561 248.5,100C 250.353,97.9602 251.686,95.6269 252.5,93C 253.819,86.0149 253.819,79.0149 252.5,72C 253.167,71.6667 253.833,71.3333 254.5,71C 254.181,63.7949 253.847,56.1282 253.5,48C 254.167,47.6667 254.833,47.3333 255.5,47C 252.612,46.3185 251.945,44.8185 253.5,42.5C 252.205,39.2844 251.538,35.9511 251.5,32.5C 253.415,32.7845 255.081,32.4511 256.5,31.5 Z"/></g>
<g><path style="opacity:1" fill="#1f222b" d="M 179.5,171.5 C 181.792,171.244 183.959,171.577 186,172.5C 187.004,175.993 186.504,179.159 184.5,182C 182.559,182.743 180.726,182.576 179,181.5C 178.253,178.076 178.42,174.743 179.5,171.5 Z"/></g>
<g><path style="opacity:1" fill="#c5c6c8" d="M 211.5,167.5 C 213.167,167.5 214.833,167.5 216.5,167.5C 216.5,173.833 216.5,180.167 216.5,186.5C 214.833,186.5 213.167,186.5 211.5,186.5C 211.5,180.167 211.5,173.833 211.5,167.5 Z"/></g>
<g><path style="opacity:1" fill="#9b9c9f" d="M 277.5,166.5 C 281.72,166.427 284.054,168.427 284.5,172.5C 280.833,171.833 277.167,171.167 273.5,170.5C 273.5,171.833 273.5,173.167 273.5,174.5C 283.361,173.495 286.361,177.329 282.5,186C 278.167,188 273.833,188 269.5,186C 266.173,183.469 266.173,181.635 269.5,180.5C 271.672,181.546 273.839,182.546 276,183.5C 280.407,182.512 280.574,181.012 276.5,179C 274.08,178.71 271.746,178.21 269.5,177.5C 265.716,169.582 268.383,165.916 277.5,166.5 Z"/></g>
<g><path style="opacity:1" fill="#171920" d="M 161.5,29.5 C 168.833,29.5 176.167,29.5 183.5,29.5C 218.835,29.3333 254.168,29.5 289.5,30C 300.049,32.3828 306.383,38.8828 308.5,49.5C 307.667,84.6643 307.167,119.998 307,155.5C 306.667,149.5 306.333,143.5 306,137.5C 305.852,141.313 304.352,144.479 301.5,147C 302.167,147.333 302.833,147.667 303.5,148C 302.023,149.884 300.69,151.884 299.5,154C 300.167,154.333 300.833,154.667 301.5,155C 298.057,155.221 297.724,156.221 300.5,158C 296.659,165.32 292.659,172.486 288.5,179.5C 289.116,182.124 288.116,184.291 285.5,186C 285.833,186.333 286.167,186.667 286.5,187C 283.179,189.327 281.846,192.16 282.5,195.5C 281.5,195.5 280.5,195.5 279.5,195.5C 279.52,197.143 278.853,198.476 277.5,199.5C 277.709,200.086 278.043,200.586 278.5,201C 272.611,207.569 267.445,214.736 263,222.5C 254.605,232.028 246.272,241.028 238,249.5C 237.517,250.448 237.351,251.448 237.5,252.5C 234.243,252.764 232.243,254.43 231.5,257.5C 229.876,257.36 228.71,258.027 228,259.5C 227.667,259.167 227.333,258.833 227,258.5C 225.513,259.253 225.346,260.086 226.5,261C 224.699,261.317 224.366,261.984 225.5,263C 224.167,263.333 222.833,263.667 221.5,264C 220.403,266.765 218.403,268.431 215.5,269C 211.991,272.167 208.491,275.333 205,278.5C 202.979,277.764 201.479,278.597 200.5,281C 199.551,281.617 198.718,281.451 198,280.5C 197.024,282.887 195.191,284.054 192.5,284C 192.833,284.333 193.167,284.667 193.5,285C 192.354,285.645 191.354,286.478 190.5,287.5C 189.914,287.291 189.414,286.957 189,286.5C 188.935,288.883 188.102,289.55 186.5,288.5C 183.259,291.82 179.592,293.653 175.5,294C 176.833,294.667 176.833,295.333 175.5,296C 171.25,298.62 166.917,300.454 162.5,301.5C 162.709,302.086 163.043,302.586 163.5,303C 162.584,303.278 161.918,303.778 161.5,304.5C 154.626,300.896 147.626,297.563 140.5,294.5C 140.158,293.662 139.492,293.328 138.5,293.5C 137.694,292.272 136.694,291.272 135.5,290.5C 135.948,288.568 137.614,287.068 140.5,286C 143.411,285.67 145.911,284.503 148,282.5C 150.319,284.992 151.153,284.658 150.5,281.5C 153.413,280.817 155.913,279.483 158,277.5C 158.718,278.451 159.551,278.617 160.5,278C 162.879,275.987 165.379,274.154 168,272.5C 169.333,272.5 170.667,272.5 172,272.5C 173.119,271.448 173.619,270.281 173.5,269C 175.598,269.984 177.598,269.651 179.5,268C 179.167,267.667 178.833,267.333 178.5,267C 180.956,265.289 183.623,263.956 186.5,263C 185.167,262.333 185.167,261.667 186.5,261C 189.911,259.589 193.078,257.756 196,255.5C 196.718,256.451 197.551,256.617 198.5,256C 197.833,254.667 196.833,253.667 195.5,253C 197.25,251.246 197.917,249.079 197.5,246.5C 198.209,245.596 199.209,245.263 200.5,245.5C 200.201,247.604 200.534,249.604 201.5,251.5C 202.474,249.257 202.808,246.924 202.5,244.5C 203.314,246.631 203.814,248.964 204,251.5C 204.165,248.007 205.998,246.174 209.5,246C 210.603,242.564 212.936,240.564 216.5,240C 218.167,236.333 220.833,233.667 224.5,232C 223.66,230.334 224.16,230.167 226,231.5C 226.513,229.479 227.68,227.979 229.5,227C 229.167,226.667 228.833,226.333 228.5,226C 230.5,224.667 232.5,223.333 234.5,222C 233.72,220.927 233.887,219.76 235,218.5C 238.722,214.901 242.556,211.401 246.5,208C 246.167,207.667 245.833,207.333 245.5,207C 248.316,202.897 251.316,198.397 254.5,193.5C 256.72,190.585 259.72,189.085 263.5,189C 261.292,188.809 259.292,188.309 257.5,187.5C 259.5,187.5 261.5,187.5 263.5,187.5C 263.5,181.833 263.5,176.167 263.5,170.5C 264.283,172.343 264.95,174.343 265.5,176.5C 266.728,178.176 268.061,178.509 269.5,177.5C 271.746,178.21 274.08,178.71 276.5,179C 280.574,181.012 280.407,182.512 276,183.5C 273.839,182.546 271.672,181.546 269.5,180.5C 266.173,181.635 266.173,183.469 269.5,186C 273.833,188 278.167,188 282.5,186C 286.361,177.329 283.361,173.495 273.5,174.5C 273.5,173.167 273.5,171.833 273.5,170.5C 277.167,171.167 280.833,171.833 284.5,172.5C 284.054,168.427 281.72,166.427 277.5,166.5C 276.391,165.71 275.058,165.21 273.5,165C 278.721,164.458 278.721,163.624 273.5,162.5C 271.978,160.844 272.311,159.677 274.5,159C 274.5,157.333 274.5,155.667 274.5,154C 277.956,151.933 279.29,149.1 278.5,145.5C 279.441,143.228 280.774,141.228 282.5,139.5C 281.814,137.936 281.981,136.269 283,134.5C 285.21,133.368 285.71,131.868 284.5,130C 285.978,124.899 287.645,119.899 289.5,115C 289.167,114.667 288.833,114.333 288.5,114C 290.991,113.374 290.991,112.541 288.5,111.5C 289.167,109.833 289.833,108.167 290.5,106.5C 288.786,102.66 289.786,99.8267 293.5,98C 292.856,94.3576 292.856,90.5243 293.5,86.5C 292.975,85.8076 292.308,85.3076 291.5,85C 292.833,83 294.167,81 295.5,79C 293.541,77.3158 293.541,75.3158 295.5,73C 294.542,71.8525 294.875,70.8525 296.5,70C 295.636,68.8631 294.636,67.5298 293.5,66C 294.167,65.6667 294.833,65.3333 295.5,65C 293.487,63.2087 293.487,61.8753 295.5,61C 295.384,59.7318 295.051,58.3985 294.5,57C 297.167,56.3333 297.167,55.6667 294.5,55C 294.932,47.4897 294.932,40.1563 294.5,33C 281.908,31.5589 269.241,31.0589 256.5,31.5C 237.833,31.5 219.167,31.5 200.5,31.5C 187.124,32.1476 174.124,31.4809 161.5,29.5 Z"/></g>
<g><path style="opacity:1" fill="#22262f" d="M 88.5,29.5 C 98.5,29.5 108.5,29.5 118.5,29.5C 132.833,29.5 147.167,29.5 161.5,29.5C 174.124,31.4809 187.124,32.1476 200.5,31.5C 198.369,32.3138 196.036,32.8138 193.5,33C 196.167,33.6667 196.167,34.3333 193.5,35C 194.5,37.3333 195.5,39.6667 196.5,42C 195.795,45.4556 195.461,48.7889 195.5,52C 196.561,53.8491 197.227,55.8491 197.5,58C 195.416,59.9065 195.416,61.5732 197.5,63C 196.289,64.1131 196.289,65.2798 197.5,66.5C 196.833,67.1667 196.167,67.8333 195.5,68.5C 198.141,71.4463 197.807,73.113 194.5,73.5C 195.711,74.7202 195.711,75.8869 194.5,77C 197.167,77.6667 197.167,78.3333 194.5,79C 195.576,80.7261 195.743,82.5594 195,84.5C 192.73,86.8047 192.564,88.9714 194.5,91C 192.094,93.2889 191.428,95.9556 192.5,99C 190.299,100.684 189.633,102.684 190.5,105C 189.529,106.204 188.529,106.704 187.5,106.5C 187.977,107.478 188.643,108.311 189.5,109C 187.59,110.701 186.423,112.867 186,115.5C 185.667,115.167 185.333,114.833 185,114.5C 184.727,116.101 184.227,117.601 183.5,119C 184.634,120.016 184.301,120.683 182.5,121C 183.623,122.044 184.956,122.71 186.5,123C 184.5,123.333 182.5,123.667 180.5,124C 182.708,124.191 184.708,124.691 186.5,125.5C 186.167,125.5 185.833,125.5 185.5,125.5C 183.833,125.5 182.167,125.5 180.5,125.5C 180.5,129.167 180.5,132.833 180.5,136.5C 176.167,136.5 171.833,136.5 167.5,136.5C 167.5,132.833 167.5,129.167 167.5,125.5C 165.5,125.5 163.5,125.5 161.5,125.5C 161.5,134.5 161.5,143.5 161.5,152.5C 163.5,152.5 165.5,152.5 167.5,152.5C 167.5,148.833 167.5,145.167 167.5,141.5C 171.833,141.5 176.167,141.5 180.5,141.5C 180.5,145.167 180.5,148.833 180.5,152.5C 182.5,153.833 184.5,153.833 186.5,152.5C 187.33,143.676 187.83,134.676 188,125.5C 189.02,132.799 189.687,140.132 190,147.5C 190.174,142.316 190.674,137.316 191.5,132.5C 191.084,138.952 191.584,145.285 193,151.5C 196.936,154.314 200.603,153.981 204,150.5C 205.754,152.25 207.921,152.917 210.5,152.5C 204.675,154.267 198.675,155.767 192.5,157C 192.5,158.333 192.5,159.667 192.5,161C 191.552,161.483 190.552,161.649 189.5,161.5C 189.5,162.5 189.5,163.5 189.5,164.5C 190.552,164.351 191.552,164.517 192.5,165C 190.292,165.191 188.292,165.691 186.5,166.5C 186.631,167.376 186.298,168.043 185.5,168.5C 181.358,165.593 177.524,165.926 174,169.5C 172.174,174.098 172.007,178.764 173.5,183.5C 172.609,184.261 171.942,185.261 171.5,186.5C 168.691,187.8 166.024,187.8 163.5,186.5C 165.167,186.5 166.833,186.5 168.5,186.5C 168.5,177.5 168.5,168.5 168.5,159.5C 166.833,159.5 165.167,159.5 163.5,159.5C 163.665,162.85 163.498,166.183 163,169.5C 154.776,164.196 149.943,166.363 148.5,176C 148.784,185.507 153.117,188.674 161.5,185.5C 161.67,186.822 161.337,187.989 160.5,189C 156.062,192.291 151.395,195.291 146.5,198C 144.522,201.314 141.689,203.481 138,204.5C 137.667,204.167 137.333,203.833 137,203.5C 136.626,204.416 136.126,205.25 135.5,206C 133.616,206.216 131.949,206.883 130.5,208C 130.833,208.333 131.167,208.667 131.5,209C 129.888,209.72 128.388,209.554 127,208.5C 123.417,210.744 119.917,213.078 116.5,215.5C 114.38,214.128 113.38,214.795 113.5,217.5C 111.799,217.966 110.299,217.966 109,217.5C 107.168,218.858 105.335,219.192 103.5,218.5C 101.441,219.567 99.608,220.9 98,222.5C 97.4387,221.978 96.772,221.645 96,221.5C 92.4652,222.875 88.9652,224.209 85.5,225.5C 82.0546,226.72 78.5546,226.72 75,225.5C 74,226.167 73,226.833 72,227.5C 69.4925,226.933 66.9925,226.6 64.5,226.5C 63.5224,226.977 62.6891,227.643 62,228.5C 59.4684,226.211 57.1351,226.544 55,229.5C 54.6667,228.833 54.3333,228.167 54,227.5C 48.7283,228.426 43.2283,228.76 37.5,228.5C 36.4763,227.147 35.143,226.48 33.5,226.5C 33.6495,227.552 33.4828,228.552 33,229.5C 32.6667,229.167 32.3333,228.833 32,228.5C 31.5,205.169 31.3334,181.836 31.5,158.5C 34.9662,159.306 38.4662,160.306 42,161.5C 45.5497,161.428 49.0497,161.095 52.5,160.5C 54.1307,162.059 54.964,164.059 55,166.5C 55.3333,164.167 55.6667,161.833 56,159.5C 56.1703,168.676 56.6703,177.676 57.5,186.5C 59.2646,187.461 61.2646,187.795 63.5,187.5C 63.5,183.833 63.5,180.167 63.5,176.5C 67.5,176.5 71.5,176.5 75.5,176.5C 72.0381,177.482 68.3714,177.815 64.5,177.5C 64.5,179.5 64.5,181.5 64.5,183.5C 69.0648,183.29 73.2314,182.623 77,181.5C 77.3333,182.167 77.6667,182.833 78,183.5C 78.2784,182.584 78.7784,181.918 79.5,181.5C 84.5554,188.579 90.3887,189.245 97,183.5C 99.0063,180.464 99.8396,177.131 99.5,173.5C 100.314,171.369 100.814,169.036 101,166.5C 101.174,171.684 101.674,176.684 102.5,181.5C 105.975,188.606 110.475,189.273 116,183.5C 116.483,184.448 116.649,185.448 116.5,186.5C 118.167,186.5 119.833,186.5 121.5,186.5C 122.328,180.013 122.828,173.346 123,166.5C 123.667,193.167 124.333,193.167 125,166.5C 125.172,173.346 125.672,180.013 126.5,186.5C 128.167,186.5 129.833,186.5 131.5,186.5C 131.334,182.154 131.501,177.821 132,173.5C 134.075,171.352 136.408,171.018 139,172.5C 139.499,177.155 139.666,181.821 139.5,186.5C 141.5,186.5 143.5,186.5 145.5,186.5C 145.666,181.156 145.499,175.823 145,170.5C 140.965,165.636 136.632,165.302 132,169.5C 131.517,168.552 131.351,167.552 131.5,166.5C 129.833,166.5 128.167,166.5 126.5,166.5C 127.952,165.698 129.618,165.198 131.5,165C 130.833,164.667 130.167,164.333 129.5,164C 133.114,160.522 137.114,157.522 141.5,155C 139.833,154.667 138.167,154.333 136.5,154C 138.382,153.802 140.048,153.302 141.5,152.5C 142.328,146.013 142.828,139.346 143,132.5C 143.333,137.5 143.667,142.5 144,147.5C 144.001,144.313 144.834,141.48 146.5,139C 145.584,138.722 144.918,138.222 144.5,137.5C 145.833,137.5 147.167,137.5 148.5,137.5C 148.334,142.179 148.501,146.845 149,151.5C 151.719,152.444 154.552,152.777 157.5,152.5C 157.5,151.167 157.5,149.833 157.5,148.5C 156.167,148.5 154.833,148.5 153.5,148.5C 153.5,144.833 153.5,141.167 153.5,137.5C 154.833,137.5 156.167,137.5 157.5,137.5C 157.5,135.833 157.5,134.167 157.5,132.5C 156.489,130.598 156.322,128.598 157,126.5C 159.732,122.759 162.066,118.759 164,114.5C 164.814,110.705 166.314,107.205 168.5,104C 167.742,102.636 168.242,101.469 170,100.5C 171.835,93.1608 173.668,85.8274 175.5,78.5C 176.167,81.8333 176.833,85.1667 177.5,88.5C 178.107,88.3764 178.44,88.0431 178.5,87.5C 180.593,86.9553 182.593,86.122 184.5,85C 192.883,77.6374 195.049,68.8041 191,58.5C 182.26,46.5504 171.093,43.5504 157.5,49.5C 156.686,43.9344 155.686,38.4344 154.5,33C 155.833,32.6667 157.167,32.3333 158.5,32C 151.842,31.5004 145.175,31.3337 138.5,31.5C 131.833,31.5 125.167,31.5 118.5,31.5C 108.5,30.8333 98.5,30.1667 88.5,29.5 Z"/></g>
<g><path style="opacity:1" fill="#e5e5e6" d="M 163.5,186.5 C 163.655,183.147 162.988,182.814 161.5,185.5C 153.117,188.674 148.784,185.507 148.5,176C 149.943,166.363 154.776,164.196 163,169.5C 163.498,166.183 163.665,162.85 163.5,159.5C 165.167,159.5 166.833,159.5 168.5,159.5C 168.5,168.5 168.5,177.5 168.5,186.5C 166.833,186.5 165.167,186.5 163.5,186.5 Z"/></g>
<g><path style="opacity:1" fill="#252831" d="M 155.5,171.5 C 163.629,171.294 165.629,174.794 161.5,182C 158.975,182.896 156.808,182.396 155,180.5C 154.264,177.408 154.431,174.408 155.5,171.5 Z"/></g>
<g><path style="opacity:1" fill="#ebebec" d="M 126.5,166.5 C 128.167,166.5 129.833,166.5 131.5,166.5C 131.351,167.552 131.517,168.552 132,169.5C 136.632,165.302 140.965,165.636 145,170.5C 145.499,175.823 145.666,181.156 145.5,186.5C 143.5,186.5 141.5,186.5 139.5,186.5C 139.666,181.821 139.499,177.155 139,172.5C 136.408,171.018 134.075,171.352 132,173.5C 131.501,177.821 131.334,182.154 131.5,186.5C 129.833,186.5 128.167,186.5 126.5,186.5C 126.5,179.833 126.5,173.167 126.5,166.5 Z"/></g>
<g><path style="opacity:1" fill="#f2f2f2" d="M 121.5,186.5 C 119.833,186.5 118.167,186.5 116.5,186.5C 116.649,185.448 116.483,184.448 116,183.5C 110.475,189.273 105.975,188.606 102.5,181.5C 102.5,176.5 102.5,171.5 102.5,166.5C 104.167,166.5 105.833,166.5 107.5,166.5C 107.334,171.179 107.501,175.845 108,180.5C 110.075,182.648 112.408,182.982 115,181.5C 115.499,176.511 115.666,171.511 115.5,166.5C 117.5,166.5 119.5,166.5 121.5,166.5C 121.5,173.167 121.5,179.833 121.5,186.5 Z"/></g>
<g><path style="opacity:1" fill="#efeff0" d="M 99.5,173.5 C 99.8396,177.131 99.0063,180.464 97,183.5C 90.3887,189.245 84.5554,188.579 79.5,181.5C 78.2202,175.48 79.8868,170.647 84.5,167C 91.3007,165.407 96.3007,167.574 99.5,173.5 Z"/></g>
<g><path style="opacity:1" fill="#282c36" d="M 86.5,171.5 C 92.4992,171.002 94.6659,173.669 93,179.5C 91.6949,182.306 89.5282,183.14 86.5,182C 83.8685,178.432 83.8685,174.932 86.5,171.5 Z"/></g>
<g><path style="opacity:1" fill="#f1f1f2" d="M 77.5,159.5 C 77.5,161.167 77.5,162.833 77.5,164.5C 72.8333,164.5 68.1667,164.5 63.5,164.5C 63.5,166.833 63.5,169.167 63.5,171.5C 67.5,171.5 71.5,171.5 75.5,171.5C 75.5,173.167 75.5,174.833 75.5,176.5C 71.5,176.5 67.5,176.5 63.5,176.5C 63.5,180.167 63.5,183.833 63.5,187.5C 61.2646,187.795 59.2646,187.461 57.5,186.5C 57.5,177.5 57.5,168.5 57.5,159.5C 64.1667,159.5 70.8333,159.5 77.5,159.5 Z"/></g>
<g><path style="opacity:1" fill="#96979c" d="M 185.5,125.5 C 185.833,125.5 186.167,125.5 186.5,125.5C 186.5,134.5 186.5,143.5 186.5,152.5C 184.5,153.833 182.5,153.833 180.5,152.5C 182.167,152.5 183.833,152.5 185.5,152.5C 185.5,143.5 185.5,134.5 185.5,125.5 Z"/></g>
<g><path style="opacity:1" fill="#f6f6f7" d="M 185.5,125.5 C 185.5,134.5 185.5,143.5 185.5,152.5C 183.833,152.5 182.167,152.5 180.5,152.5C 180.5,148.833 180.5,145.167 180.5,141.5C 176.167,141.5 171.833,141.5 167.5,141.5C 167.5,145.167 167.5,148.833 167.5,152.5C 165.5,152.5 163.5,152.5 161.5,152.5C 161.5,143.5 161.5,134.5 161.5,125.5C 163.5,125.5 165.5,125.5 167.5,125.5C 167.5,129.167 167.5,132.833 167.5,136.5C 171.833,136.5 176.167,136.5 180.5,136.5C 180.5,132.833 180.5,129.167 180.5,125.5C 182.167,125.5 183.833,125.5 185.5,125.5 Z"/></g>
<g><path style="opacity:1" fill="#717378" d="M 211.5,167.5 C 211.5,167.167 211.5,166.833 211.5,166.5C 213.5,166.5 215.5,166.5 217.5,166.5C 217.5,173.5 217.5,180.5 217.5,187.5C 215.265,187.795 213.265,187.461 211.5,186.5C 213.167,186.5 214.833,186.5 216.5,186.5C 216.5,180.167 216.5,173.833 216.5,167.5C 214.833,167.5 213.167,167.5 211.5,167.5 Z"/></g>
<g><path style="opacity:1" fill="#b1b2b4" d="M 226.5,166.5 C 232.59,165.137 237.09,167.137 240,172.5C 241.814,184.187 236.981,188.854 225.5,186.5C 223.304,185.146 221.804,183.146 221,180.5C 219.268,174.314 221.101,169.647 226.5,166.5 Z"/></g>
<g><path style="opacity:1" fill="#1c1e26" d="M 227.5,171.5 C 229.792,171.244 231.959,171.577 234,172.5C 235.004,175.993 234.504,179.159 232.5,182C 230.299,182.825 228.466,182.325 227,180.5C 226.264,177.408 226.431,174.408 227.5,171.5 Z"/></g>
<g><path style="opacity:0.012" fill="#43346b" d="M 20.5,230.5 C 19.3775,228.712 19.2109,226.712 20,224.5C 20.4955,226.473 20.6621,228.473 20.5,230.5 Z"/></g>
<g><path style="opacity:1" fill="#7de586" d="M 153.5,228.5 C 153.938,228.435 154.272,228.601 154.5,229C 151.833,231.333 151.833,233.667 154.5,236C 153.552,236.483 152.552,236.649 151.5,236.5C 151.335,233.15 151.502,229.817 152,226.5C 152.278,227.416 152.778,228.082 153.5,228.5 Z"/></g>
<g><path style="opacity:1" fill="#70ca79" d="M 161.5,225.5 C 162.873,225.343 164.207,225.51 165.5,226C 164.692,226.308 164.025,226.808 163.5,227.5C 165.045,228.452 166.712,228.785 168.5,228.5C 168.664,231.187 168.497,233.854 168,236.5C 167.503,234.19 167.337,231.857 167.5,229.5C 166.167,229.5 164.833,229.5 163.5,229.5C 163.808,231.924 163.474,234.257 162.5,236.5C 161.1,232.762 160.767,229.096 161.5,225.5 Z"/></g>
<g><path style="opacity:1" fill="#6fc878" d="M 172.5,228.5 C 174.144,228.286 175.644,228.62 177,229.5C 177.667,230.167 177.667,230.833 177,231.5C 174.786,228.692 173.286,229.025 172.5,232.5C 173.286,235.975 174.786,236.308 177,233.5C 177.464,234.094 177.631,234.761 177.5,235.5C 177.158,236.338 176.492,236.672 175.5,236.5C 170.243,235.482 169.243,232.816 172.5,228.5 Z"/></g>
<g><path style="opacity:1" fill="#64b26e" d="M 190.5,225.5 C 191.404,226.209 191.737,227.209 191.5,228.5C 193.5,228.5 195.5,228.5 197.5,228.5C 197.813,231.247 197.48,233.914 196.5,236.5C 195.534,234.604 195.201,232.604 195.5,230.5C 194.5,230.5 193.5,230.5 192.5,230.5C 192.328,232.492 192.995,234.158 194.5,235.5C 193.042,236.782 191.708,236.782 190.5,235.5C 190.917,232.921 190.25,230.754 188.5,229C 189.973,228.29 190.64,227.124 190.5,225.5 Z"/></g>
<g><path style="opacity:0.012" fill="#0e0140" d="M 317.5,229.5 C 317.833,229.5 318.167,229.5 318.5,229.5C 318.737,230.791 318.404,231.791 317.5,232.5C 317.5,231.5 317.5,230.5 317.5,229.5 Z"/></g>
<g><path style="opacity:1" fill="#6cc276" d="M 156.5,228.5 C 157.748,229.334 158.415,230.667 158.5,232.5C 158.167,233.833 157.833,235.167 157.5,236.5C 156.52,233.914 156.187,231.247 156.5,228.5 Z"/></g>
<g><path style="opacity:0.008" fill="#686868" d="M 20.5,230.5 C 21.525,230.897 21.6917,231.563 21,232.5C 20.5357,231.906 20.369,231.239 20.5,230.5 Z"/></g>
<g><path style="opacity:1" fill="#6ec777" d="M 143.5,232.5 C 141.976,231.826 140.642,230.826 139.5,229.5C 137.616,230.693 137.116,232.359 138,234.5C 139.603,234.871 141.103,235.205 142.5,235.5C 137.657,237.5 135.491,235.833 136,230.5C 139.518,227.504 142.018,228.171 143.5,232.5 Z"/></g>
<g><path style="opacity:1" fill="#62ac6b" d="M 186.5,236.5 C 184.72,235.01 184.054,233.01 184.5,230.5C 183.5,230.5 182.5,230.5 181.5,230.5C 181.141,232.766 181.808,234.599 183.5,236C 181.055,236.91 179.722,236.076 179.5,233.5C 179.286,231.856 179.62,230.356 180.5,229C 182.473,228.505 184.473,228.338 186.5,228.5C 186.5,231.167 186.5,233.833 186.5,236.5 Z"/></g>
<g><path style="opacity:1" fill="#6bc074" d="M 211.5,229.5 C 210.942,231.823 210.275,234.157 209.5,236.5C 208.167,233.833 208.167,231.167 209.5,228.5C 210.183,228.863 210.85,229.196 211.5,229.5 Z"/></g>
<g><path style="opacity:1" fill="#5ca265" d="M 211.5,229.5 C 212.884,228.199 214.384,228.199 216,229.5C 216.814,231.902 216.647,234.235 215.5,236.5C 214.692,234.577 214.192,232.577 214,230.5C 213.329,229.748 212.496,229.414 211.5,229.5 Z"/></g>
<g><path style="opacity:1" fill="#3c5e46" d="M 143.5,232.5 C 143.737,233.791 143.404,234.791 142.5,235.5C 141.103,235.205 139.603,234.871 138,234.5C 137.116,232.359 137.616,230.693 139.5,229.5C 140.642,230.826 141.976,231.826 143.5,232.5 Z"/></g>
<g><path style="opacity:1" fill="#4e8458" d="M 153.5,228.5 C 152.778,228.082 152.278,227.416 152,226.5C 151.502,229.817 151.335,233.15 151.5,236.5C 150.686,234.369 150.186,232.036 150,229.5C 148.183,231.416 147.016,233.749 146.5,236.5C 145.52,233.914 145.187,231.247 145.5,228.5C 147.167,228.5 148.833,228.5 150.5,228.5C 150.5,227.5 150.5,226.5 150.5,225.5C 151.5,225.5 152.5,225.5 153.5,225.5C 153.5,226.5 153.5,227.5 153.5,228.5 Z"/></g>
<g><path style="opacity:0.008" fill="#000000" d="M 316.5,232.5 C 316.833,232.5 317.167,232.5 317.5,232.5C 317.737,233.791 317.404,234.791 316.5,235.5C 316.5,234.5 316.5,233.5 316.5,232.5 Z"/></g>
<g><path style="opacity:1" fill="#66b46f" d="M 126.5,225.5 C 129.908,224.828 132.575,225.828 134.5,228.5C 134.167,228.833 133.833,229.167 133.5,229.5C 131.477,227.827 129.144,227.16 126.5,227.5C 126.5,229.833 126.5,232.167 126.5,234.5C 129.144,234.84 131.477,234.173 133.5,232.5C 134.594,233.868 134.26,235.035 132.5,236C 127.515,237.757 124.849,236.09 124.5,231C 124.395,228.822 125.061,226.988 126.5,225.5 Z"/></g>
<g><path style="opacity:0.004" fill="#1f1f1f" d="M 22.5,233.5 C 22.5,234.167 22.5,234.833 22.5,235.5C 21.1667,234.833 21.1667,234.167 22.5,233.5 Z"/></g>
<g><path style="opacity:1" fill="#73cf7c" d="M 200.5,228.5 C 206.313,228.062 207.98,230.562 205.5,236C 199.593,236.746 197.927,234.246 200.5,228.5 Z"/></g>
<g><path style="opacity:1" fill="#212a2b" d="M 201.5,229.5 C 205.35,229.701 206.35,231.534 204.5,235C 203.552,235.483 202.552,235.649 201.5,235.5C 201.5,233.5 201.5,231.5 201.5,229.5 Z"/></g>
<g><path style="opacity:0.008" fill="#000000" d="M 315.5,235.5 C 315.833,235.5 316.167,235.5 316.5,235.5C 316.672,236.492 316.338,237.158 315.5,237.5C 315.5,236.833 315.5,236.167 315.5,235.5 Z"/></g>
<g><path style="opacity:0.004" fill="#1f1f1f" d="M 22.5,235.5 C 22.8333,235.5 23.1667,235.5 23.5,235.5C 23.5,236.167 23.5,236.833 23.5,237.5C 22.6618,237.158 22.3284,236.492 22.5,235.5 Z"/></g>
<g><path style="opacity:0.012" fill="#000000" d="M 314.5,237.5 C 314.833,237.5 315.167,237.5 315.5,237.5C 315.315,238.17 314.981,238.17 314.5,237.5 Z"/></g>
<g><path style="opacity:0.004" fill="#1f1f1f" d="M 23.5,237.5 C 23.8333,237.5 24.1667,237.5 24.5,237.5C 24.1667,240.167 23.8333,240.167 23.5,237.5 Z"/></g>
<g><path style="opacity:0.008" fill="#000000" d="M 313.5,238.5 C 313.833,238.5 314.167,238.5 314.5,238.5C 314.672,239.492 314.338,240.158 313.5,240.5C 313.5,239.833 313.5,239.167 313.5,238.5 Z"/></g>
<g><path style="opacity:0.012" fill="#000000" d="M 312.5,240.5 C 312.833,240.5 313.167,240.5 313.5,240.5C 313.315,241.17 312.981,241.17 312.5,240.5 Z"/></g>
<g><path style="opacity:0.012" fill="#000055" d="M 311.5,241.5 C 311.833,241.5 312.167,241.5 312.5,241.5C 312.315,242.17 311.981,242.17 311.5,241.5 Z"/></g>
<g><path style="opacity:0.004" fill="#2b2b2b" d="M 27.5,241.5 C 27.631,242.239 27.4643,242.906 27,243.5C 26.3083,242.563 26.475,241.897 27.5,241.5 Z"/></g>
<g><path style="opacity:1" fill="#69bc73" d="M 138.5,240.5 C 141.838,240.065 144.838,240.732 147.5,242.5C 147.673,247.323 145.339,249.323 140.5,248.5C 140.719,249.675 140.386,250.675 139.5,251.5C 138.511,247.893 138.177,244.226 138.5,240.5 Z"/></g>
<g><path style="opacity:1" fill="#1d2228" d="M 140.5,242.5 C 142.167,242.5 143.833,242.5 145.5,242.5C 145.5,243.833 145.5,245.167 145.5,246.5C 143.833,246.5 142.167,246.5 140.5,246.5C 140.5,245.167 140.5,243.833 140.5,242.5 Z"/></g>
<g><path style="opacity:1" fill="#6cc275" d="M 202.5,244.5 C 202.808,246.924 202.474,249.257 201.5,251.5C 200.534,249.604 200.201,247.604 200.5,245.5C 199.209,245.263 198.209,245.596 197.5,246.5C 196.698,247.952 196.198,249.618 196,251.5C 195.505,249.527 195.338,247.527 195.5,245.5C 194.178,245.33 193.011,245.663 192,246.5C 191.667,248.167 191.333,249.833 191,251.5C 190.186,249.098 190.353,246.765 191.5,244.5C 195.146,244.187 198.813,244.187 202.5,244.5 Z"/></g>
<g><path style="opacity:1" fill="#67b871" d="M 154.5,243.5 C 154.5,244.167 154.5,244.833 154.5,245.5C 153.5,245.5 152.5,245.5 151.5,245.5C 151.799,247.604 151.466,249.604 150.5,251.5C 149.353,249.235 149.186,246.902 150,244.5C 151.356,243.62 152.856,243.286 154.5,243.5 Z"/></g>
<g><path style="opacity:1" fill="#66b56f" d="M 165.5,243.5 C 167.5,243.5 169.5,243.5 171.5,243.5C 171.789,247.106 171.456,250.606 170.5,254C 168.833,254.667 167.167,254.667 165.5,254C 164.304,253.346 164.304,252.846 165.5,252.5C 166.891,253.645 168.224,253.645 169.5,252.5C 167.456,251.935 165.79,250.935 164.5,249.5C 164.325,247.379 164.659,245.379 165.5,243.5 Z"/></g>
<g><path style="opacity:1" fill="#15141f" d="M 166.5,245.5 C 167.5,245.5 168.5,245.5 169.5,245.5C 169.5,246.833 169.5,248.167 169.5,249.5C 168.5,249.5 167.5,249.5 166.5,249.5C 166.5,248.167 166.5,246.833 166.5,245.5 Z"/></g>
<g><path style="opacity:1" fill="#66b56f" d="M 179.5,245.5 C 181.82,243.774 184.487,243.107 187.5,243.5C 187.5,246.167 187.5,248.833 187.5,251.5C 181.716,253.719 179.049,251.719 179.5,245.5 Z"/></g>
<g><path style="opacity:1" fill="#528d5b" d="M 179.5,245.5 C 178.5,245.5 177.5,245.5 176.5,245.5C 176.808,247.924 176.474,250.257 175.5,252.5C 174.516,249.572 174.183,246.572 174.5,243.5C 176.781,243.077 178.448,243.744 179.5,245.5 Z"/></g>
<g><path style="opacity:1" fill="#1a1e24" d="M 181.5,245.5 C 182.833,245.5 184.167,245.5 185.5,245.5C 185.884,247.665 185.217,249.332 183.5,250.5C 181.783,249.332 181.116,247.665 181.5,245.5 Z"/></g>
<g><path style="opacity:0.012" fill="#000055" d="M 304.5,248.5 C 304.833,248.5 305.167,248.5 305.5,248.5C 305.315,249.17 304.981,249.17 304.5,248.5 Z"/></g>
<g><path style="opacity:1" fill="#66b46f" d="M 162.5,249.5 C 160.167,253.5 157.833,253.5 155.5,249.5C 155.343,248.127 155.51,246.793 156,245.5C 160.891,242.112 163.058,243.445 162.5,249.5 Z"/></g>
<g><path style="opacity:1" fill="#161521" d="M 157.5,245.5 C 158.5,245.5 159.5,245.5 160.5,245.5C 160.5,247.167 160.5,248.833 160.5,250.5C 159.5,250.5 158.5,250.5 157.5,250.5C 157.5,248.833 157.5,247.167 157.5,245.5 Z"/></g>
<g><path style="opacity:0.012" fill="#100020" d="M 293.5,255.5 C 293.5,255.167 293.5,254.833 293.5,254.5C 294.167,254.5 294.833,254.5 295.5,254.5C 295.158,255.338 294.492,255.672 293.5,255.5 Z"/></g>
<g><path style="opacity:0.012" fill="#000062" d="M 291.5,256.5 C 291.5,256.167 291.5,255.833 291.5,255.5C 292.167,255.5 292.833,255.5 293.5,255.5C 293.158,256.338 292.492,256.672 291.5,256.5 Z"/></g>
<g><path style="opacity:0.008" fill="#000070" d="M 272.5,266.5 C 272.5,266.167 272.5,265.833 272.5,265.5C 273.167,265.5 273.833,265.5 274.5,265.5C 274.158,266.338 273.492,266.672 272.5,266.5 Z"/></g>
<g><path style="opacity:0.012" fill="#000062" d="M 270.5,267.5 C 270.5,267.167 270.5,266.833 270.5,266.5C 271.167,266.5 271.833,266.5 272.5,266.5C 272.158,267.338 271.492,267.672 270.5,267.5 Z"/></g>
<g><path style="opacity:0.012" fill="#000062" d="M 268.5,268.5 C 268.5,268.167 268.5,267.833 268.5,267.5C 269.167,267.5 269.833,267.5 270.5,267.5C 270.158,268.338 269.492,268.672 268.5,268.5 Z"/></g>
<g><path style="opacity:1" fill="#50596e" d="M 310.5,51.5 C 310.667,109.834 310.5,168.168 310,226.5C 308.049,235.576 302.882,242.076 294.5,246C 255.135,266.348 215.802,286.682 176.5,307C 170.307,307.984 164.307,307.318 158.5,305C 152.273,301.726 146.273,298.226 140.5,294.5C 147.626,297.563 154.626,300.896 161.5,304.5C 167.489,305.85 173.489,305.683 179.5,304C 218.343,283.412 257.343,263.078 296.5,243C 303.905,239.02 307.905,232.854 308.5,224.5C 309.167,166.833 309.833,109.167 310.5,51.5 Z"/></g>
<g><path style="opacity:0.998" fill="#21242e" d="M 317.5,163.5 C 317.5,185.5 317.5,207.5 317.5,229.5C 316.596,230.209 316.263,231.209 316.5,232.5C 315.596,233.209 315.263,234.209 315.5,235.5C 314.662,235.842 314.328,236.508 314.5,237.5C 313.833,237.5 313.5,237.833 313.5,238.5C 312.662,238.842 312.328,239.508 312.5,240.5C 311.833,240.5 311.5,240.833 311.5,241.5C 310.167,241.833 310.167,242.167 311.5,242.5C 310.5,245.5 308.5,247.5 305.5,248.5C 305.167,247.167 304.833,247.167 304.5,248.5C 303.167,248.833 303.167,249.167 304.5,249.5C 301.992,251.924 298.992,253.59 295.5,254.5C 294.833,253.167 294.167,253.167 293.5,254.5C 292.508,254.328 291.842,254.662 291.5,255.5C 290.167,255.833 290.167,256.167 291.5,256.5C 286.316,260.26 280.65,263.26 274.5,265.5C 273.833,264.167 273.167,264.167 272.5,265.5C 271.508,265.328 270.842,265.662 270.5,266.5C 269.508,266.328 268.842,266.662 268.5,267.5C 267.167,267.833 267.167,268.167 268.5,268.5C 247.282,280.61 225.616,291.943 203.5,302.5C 202.833,301.167 202.167,301.167 201.5,302.5C 200.508,302.328 199.842,302.662 199.5,303.5C 198.508,303.328 197.842,303.662 197.5,304.5C 196.167,304.833 196.167,305.167 197.5,305.5C 192.086,309.54 186.086,312.54 179.5,314.5C 178.5,313.167 177.5,313.167 176.5,314.5C 171.637,314.181 166.97,314.514 162.5,315.5C 157.327,314.578 152.66,312.578 148.5,309.5C 148.5,309.167 148.5,308.833 148.5,308.5C 148.833,308.5 149.167,308.5 149.5,308.5C 149.5,309.167 149.833,309.5 150.5,309.5C 150.833,309.5 151.167,309.5 151.5,309.5C 151.833,310.833 152.167,310.833 152.5,309.5C 152.631,308.624 152.298,307.957 151.5,307.5C 140.5,301.667 129.5,295.833 118.5,290C 120.937,290.203 123.271,291.037 125.5,292.5C 126.696,292.154 126.696,291.654 125.5,291C 126.609,290.362 127.775,289.862 129,289.5C 132.171,291.008 135.338,292.341 138.5,293.5C 139.492,293.328 140.158,293.662 140.5,294.5C 146.273,298.226 152.273,301.726 158.5,305C 164.307,307.318 170.307,307.984 176.5,307C 215.802,286.682 255.135,266.348 294.5,246C 302.882,242.076 308.049,235.576 310,226.5C 310.5,168.168 310.667,109.834 310.5,51.5C 311.353,68.8009 311.853,88.1343 312,109.5C 312.181,100.589 312.681,91.7553 313.5,83C 313.144,80.6558 312.811,78.3225 312.5,76C 312.944,74.2382 313.444,74.4049 314,76.5C 314.098,67.2357 314.432,57.569 315,47.5C 315.333,84.5 315.667,121.5 316,158.5C 316.198,160.382 316.698,162.048 317.5,163.5 Z"/></g>
<g><path style="opacity:0.999" fill="#333846" d="M 29.5,186.5 C 29.3334,199.837 29.5001,213.171 30,226.5C 31.8677,233.706 36.0343,239.206 42.5,243C 53.3502,248.258 64.0168,253.758 74.5,259.5C 94.7041,270.102 115.037,280.435 135.5,290.5C 136.694,291.272 137.694,292.272 138.5,293.5C 135.338,292.341 132.171,291.008 129,289.5C 127.775,289.862 126.609,290.362 125.5,291C 126.696,291.654 126.696,292.154 125.5,292.5C 123.271,291.037 120.937,290.203 118.5,290C 129.5,295.833 140.5,301.667 151.5,307.5C 152.298,307.957 152.631,308.624 152.5,309.5C 152.167,309.5 151.833,309.5 151.5,309.5C 151.167,309.5 150.833,309.5 150.5,309.5C 149.833,309.5 149.5,309.167 149.5,308.5C 149.167,308.5 148.833,308.5 148.5,308.5C 148.5,308.833 148.5,309.167 148.5,309.5C 143.91,307.872 139.577,305.705 135.5,303C 136.833,302.333 136.833,301.667 135.5,301C 127.444,299.153 119.777,295.82 112.5,291C 113.833,290.333 113.833,289.667 112.5,289C 104.444,287.153 96.7774,283.82 89.5,279C 90.1667,278.667 90.8333,278.333 91.5,278C 83.2644,275.902 75.2644,272.569 67.5,268C 67.1667,267 66.8333,266 66.5,265C 62.6197,265.09 58.953,263.923 55.5,261.5C 55.5,261.167 55.5,260.833 55.5,260.5C 56.8333,260.167 56.8333,259.833 55.5,259.5C 55.1667,259.5 54.8333,259.5 54.5,259.5C 54.5,259.167 54.5,258.833 54.5,258.5C 48.96,253.713 42.6267,249.88 35.5,247C 30.8535,243.358 27.3535,238.858 25,233.5C 23.3938,217.22 23.0605,200.887 24,184.5C 24.3333,186.5 24.6667,188.5 25,190.5C 26.4138,189.009 27.9138,187.675 29.5,186.5 Z"/></g>
<g><path style="opacity:0.012" fill="#005554" d="M 201.5,303.5 C 201.5,303.167 201.5,302.833 201.5,302.5C 202.167,302.5 202.833,302.5 203.5,302.5C 203.158,303.338 202.492,303.672 201.5,303.5 Z"/></g>
<g><path style="opacity:0.012" fill="#656242" d="M 199.5,304.5 C 199.5,304.167 199.5,303.833 199.5,303.5C 200.167,303.5 200.833,303.5 201.5,303.5C 201.158,304.338 200.492,304.672 199.5,304.5 Z"/></g>
<g><path style="opacity:0.012" fill="#153a55" d="M 197.5,305.5 C 197.5,305.167 197.5,304.833 197.5,304.5C 198.167,304.5 198.833,304.5 199.5,304.5C 199.158,305.338 198.492,305.672 197.5,305.5 Z"/></g>
<g><path style="opacity:0.016" fill="#353535" d="M 176.5,315.5 C 176.5,315.167 176.5,314.833 176.5,314.5C 177.5,314.5 178.5,314.5 179.5,314.5C 178.791,315.404 177.791,315.737 176.5,315.5 Z"/></g>
<g><path style="opacity:0.02" fill="#34363c" d="M 162.5,315.5 C 167.167,315.5 171.833,315.5 176.5,315.5C 171.833,316.833 167.167,316.833 162.5,315.5 Z"/></g>
</svg>
